<svg xmlns="http://www.w3.org/2000/svg" xmlns:xlink="http://www.w3.org/1999/xlink" viewBox="0 0 1707.56 645.51"><defs><style>.cls-1{isolation:isolate;}.cls-2{font-size:200px;font-family:Verdana-Bold, Verdana;font-weight:700;}.cls-2,.cls-5{fill:#252b68;}.cls-3{font-family:SitkaText-Bold, Sitka;}.cls-4,.cls-8{fill:none;}.cls-4{stroke:#fff;stroke-miterlimit:10;}.cls-12,.cls-26,.cls-36,.cls-6,.cls-7{mix-blend-mode:multiply;}.cls-6{fill:url(#linear-gradient);}.cls-7{fill:url(#linear-gradient-2);}.cls-9{fill:#fff;}.cls-10{fill:url(#linear-gradient-3);}.cls-11{fill:url(#linear-gradient-4);}.cls-12{fill:url(#linear-gradient-5);}.cls-13{fill:url(#linear-gradient-6);}.cls-14{fill:url(#linear-gradient-7);}.cls-15{fill:url(#linear-gradient-8);}.cls-16{fill:url(#linear-gradient-9);}.cls-17{fill:url(#linear-gradient-10);}.cls-18{fill:url(#linear-gradient-11);}.cls-19{fill:url(#linear-gradient-12);}.cls-20{fill:url(#linear-gradient-13);}.cls-21{fill:url(#linear-gradient-14);}.cls-22{fill:url(#linear-gradient-15);}.cls-23,.cls-25{mix-blend-mode:soft-light;}.cls-23{fill:url(#linear-gradient-16);}.cls-24{mix-blend-mode:lighten;fill:url(#linear-gradient-17);}.cls-25{fill:url(#linear-gradient-18);}.cls-26{opacity:0.46;fill:url(#linear-gradient-19);}.cls-27{opacity:0.43;fill:url(#linear-gradient-20);}.cls-28{opacity:0.29;fill:url(#linear-gradient-21);}.cls-29{opacity:0.52;fill:url(#linear-gradient-22);}.cls-30{fill:#eaeaea;}.cls-31{fill:#e9e8e8;}.cls-32{fill:#f0efef;}.cls-33,.cls-34,.cls-35{mix-blend-mode:screen;}.cls-33{fill:url(#radial-gradient);}.cls-34{fill:url(#radial-gradient-2);}.cls-35{fill:url(#radial-gradient-3);}.cls-36{opacity:0.47;fill:url(#linear-gradient-23);}.cls-37{font-size:12px;fill:#231f20;font-family:MyriadPro-Regular, Myriad Pro;}</style><linearGradient id="linear-gradient" x1="-489.5" y1="517.51" x2="-743.2" y2="557.73" gradientTransform="translate(734.46 -228.49)" gradientUnits="userSpaceOnUse"><stop offset="0" stop-color="#fff" stop-opacity="0"/><stop offset="1" stop-color="#010101"/></linearGradient><linearGradient id="linear-gradient-2" x1="1859.8" y1="511.76" x2="1610.21" y2="551.33" gradientTransform="matrix(-1, 0, 0, 1, 2310.16, -228.49)" xlink:href="#linear-gradient"/><linearGradient id="linear-gradient-3" x1="266.4" y1="129.84" x2="234.21" y2="171.05" gradientUnits="userSpaceOnUse"><stop offset="0" stop-color="#c0bfbf"/><stop offset="0.28" stop-color="#c9c9c9"/><stop offset="0.75" stop-color="#e3e2e2"/><stop offset="1" stop-color="#f3f3f3"/></linearGradient><linearGradient id="linear-gradient-4" x1="475.77" y1="375.66" x2="569.35" y2="375.66" gradientTransform="translate(-83.99 -225.03) rotate(-0.22)" xlink:href="#linear-gradient-3"/><linearGradient id="linear-gradient-5" x1="566.92" y1="376.64" x2="514.7" y2="364.14" gradientTransform="translate(-83.99 -225.03) rotate(-0.22)" xlink:href="#linear-gradient-3"/><linearGradient id="linear-gradient-6" x1="444.97" y1="163.46" x2="406.24" y2="120.63" xlink:href="#linear-gradient-3"/><linearGradient id="linear-gradient-7" x1="267.6" y1="157.63" x2="425.57" y2="157.63" xlink:href="#linear-gradient-3"/><linearGradient id="linear-gradient-8" x1="346.51" y1="187.31" x2="353.64" y2="304.42" xlink:href="#linear-gradient-3"/><linearGradient id="linear-gradient-9" x1="267.6" y1="245.68" x2="425.57" y2="245.68" xlink:href="#linear-gradient-3"/><linearGradient id="linear-gradient-10" x1="230.8" y1="160.64" x2="309.73" y2="252.59" gradientUnits="userSpaceOnUse"><stop offset="0" stop-color="#f3f3f3"/><stop offset="0.25" stop-color="#e3e2e2"/><stop offset="0.72" stop-color="#c9c9c9"/><stop offset="1" stop-color="#c0bfbf"/></linearGradient><linearGradient id="linear-gradient-11" x1="544.2" y1="388.19" x2="470.66" y2="470.93" gradientTransform="translate(-83.99 -225.03) rotate(-0.22)" xlink:href="#linear-gradient-10"/><linearGradient id="linear-gradient-12" x1="245.2" y1="109.49" x2="447.87" y2="109.49" xlink:href="#linear-gradient-3"/><linearGradient id="linear-gradient-13" x1="288.54" y1="105.71" x2="456.98" y2="108.54" xlink:href="#linear-gradient-3"/><linearGradient id="linear-gradient-14" x1="288.54" y1="108.48" x2="456.92" y2="111.31" xlink:href="#linear-gradient-3"/><linearGradient id="linear-gradient-15" x1="288.49" y1="107.6" x2="457" y2="110.44" xlink:href="#linear-gradient-3"/><linearGradient id="linear-gradient-16" x1="332.5" y1="201.67" x2="281.23" y2="155.64" xlink:href="#linear-gradient-3"/><linearGradient id="linear-gradient-17" x1="384.98" y1="192.01" x2="403.88" y2="131.18" xlink:href="#linear-gradient-3"/><linearGradient id="linear-gradient-18" x1="276.46" y1="183.46" x2="418.85" y2="155.67" xlink:href="#linear-gradient-3"/><linearGradient id="linear-gradient-19" x1="262.3" y1="139.45" x2="235.53" y2="169.13" xlink:href="#linear-gradient-3"/><linearGradient id="linear-gradient-20" x1="245.36" y1="99.35" x2="415.61" y2="102.21" xlink:href="#linear-gradient-3"/><linearGradient id="linear-gradient-21" x1="311.89" y1="312.1" x2="301.17" y2="159.47" xlink:href="#linear-gradient-3"/><linearGradient id="linear-gradient-22" x1="390.49" y1="306.6" x2="379.75" y2="153.48" xlink:href="#linear-gradient-3"/><radialGradient id="radial-gradient" cx="2349.54" cy="-1058.5" r="3.16" gradientTransform="matrix(3.03, 3.19, -3.03, 3.19, -10031.87, -3987.01)" gradientUnits="userSpaceOnUse"><stop offset="0" stop-color="#fff"/><stop offset="0.22" stop-color="#b5b5b5"/><stop offset="0.43" stop-color="#757575"/><stop offset="0.61" stop-color="#434343"/><stop offset="0.78" stop-color="#1f1f1f"/><stop offset="0.91" stop-color="#090909"/><stop offset="0.99" stop-color="#010101"/></radialGradient><radialGradient id="radial-gradient-2" cx="2349.42" cy="-1058.48" r="3.52" gradientTransform="matrix(3.03, 3.19, -3.03, 3.19, -9950.4, -3758.52)" gradientUnits="userSpaceOnUse"><stop offset="0" stop-color="#fff"/><stop offset="0.09" stop-color="#f1f1f1"/><stop offset="0.26" stop-color="#cdcdcd"/><stop offset="0.5" stop-color="#939393"/><stop offset="0.78" stop-color="#434343"/><stop offset="0.99" stop-color="#010101"/></radialGradient><radialGradient id="radial-gradient-3" cx="2354.07" cy="-1044.34" r="1.58" gradientTransform="matrix(3.03, 3.19, -3.03, 3.19, -9950.4, -3758.52)" xlink:href="#radial-gradient"/><linearGradient id="linear-gradient-23" x1="345.48" y1="574.37" x2="345.48" y2="324.01" gradientUnits="userSpaceOnUse"><stop offset="0" stop-color="#fff" stop-opacity="0"/><stop offset="1" stop-color="#010101" stop-opacity="0.5"/></linearGradient></defs><g class="cls-1"><g id="Layer_1" data-name="Layer 1"><text class="cls-2" transform="translate(785.1 232.94) scale(0.94 1)">MARUTI <tspan x="110.87" y="240">GEMS </tspan><tspan class="cls-3" x="809.7" y="240"> </tspan></text><polyline class="cls-4" points="446.46 68.18 560.3 205.05 355.82 500.09"/><polygon class="cls-5" points="187.99 1.46 254.36 1.46 130.66 170.82 335.9 557.84 0 174.58 187.99 1.46"/><polyline class="cls-6" points="215.8 7.2 72.79 182.1 335.9 561.04"/><polyline class="cls-5" points="694.18 172.71 506.84 1.46 440.02 2.09 563.52 168.94 358.28 555.97 694.18 172.71"/><polyline class="cls-7" points="473.96 0 620.03 176.32 360.1 555.97"/><path class="cls-8" d="M656,351.29l-44.79-54.2-44.72-54.26L555.89,230H300.67l-12.24,15.13L266.24,272.5,244,299.86l-44.49,54.73-44.08,54.08L218,499,280.86,590l31.37,45.56,31.31,45.61L359.19,704l15.6,22.85L404.93,771,211.45,399.64,334.5,231.78l187-1.2L645,397.44,444.43,780.2l27.77-41.09,16.22-24,16.28-24q32.58-47.89,65.19-95.76l65.34-95.65,65.11-94.88Z" transform="translate(-81.47 -228.49)"/><path class="cls-9" d="M300,230,287.9,244.61l-22.45,27.17L243.06,299l-44.78,54.46L153.56,408l-.48.58.43.63,62.84,91,63,90.9L311,636.54l31.61,45.37,15.82,22.68,15.87,22.64L405,771.13l22,42.27,17-32.49,28.69-41.38,16.5-23.78,16.44-23.84q32.87-47.68,65.69-95.38L636.91,501l65.34-95.65.42-.62-.48-.57-45-54-45.07-53.94L567,242.37,556.57,230m78.66,269.79L569.89,595.4q-32.71,47.79-65.19,95.76l-16.28,24-16.22,24L444.43,780.2,645,397.44,521.49,230.58,335.84,230,211.45,399.64,404.93,771l-30.14-44.16L359.19,704l-15.65-22.8-31.31-45.61L280.86,590,218,499l-62.6-90.28,44.08-54.08L244,299.86l22.24-27.36,22.19-27.41L300.67,230H555.89l10.59,12.87,44.72,54.26L656,351.29l44.35,53.58Z" transform="translate(-81.47 -228.49)"/><polygon class="cls-10" points="245.2 109.05 206.08 146.65 267.6 188.7 299.53 126.78 245.2 109.05"/><polygon class="cls-11" points="447.52 108.92 486.77 146.37 425.5 188.39 393.12 126.66 447.52 108.92"/><polygon class="cls-12" points="447.52 108.92 442.26 110.64 448.21 172.82 486.77 146.37 447.52 108.92"/><polygon class="cls-13" points="393.41 126.56 410.68 159.78 431.49 114.32 393.41 126.56"/><polygon class="cls-14" points="267.6 188.7 346.58 188.56 425.57 188.42 409.49 157.49 393.41 126.56 346.47 126.67 299.53 126.78 283.56 157.74 267.6 188.7"/><polygon class="cls-15" points="267.6 188.7 425.57 188.42 346.54 302.94 267.6 188.7"/><polygon class="cls-16" points="267.6 188.7 425.57 188.42 346.54 302.94 267.6 188.7"/><polygon class="cls-17" points="206.08 146.65 346.54 302.94 267.6 188.7 206.08 146.65"/><polygon class="cls-18" points="486.77 146.37 346.89 303.22 425.5 188.39 486.77 146.37"/><polygon class="cls-19" points="397.2 92.2 447.87 109.05 393.41 126.56 299.53 126.78 245.2 109.05 295.87 92.2 397.2 92.2"/><polygon class="cls-20" points="295.87 92.2 245.2 109.05 276.84 119.38 309.99 92.2 295.87 92.2"/><polygon class="cls-21" points="345.3 92.2 321.58 126.73 366.41 126.63 373.33 92.2 345.3 92.2"/><polygon class="cls-22" points="447.87 109.05 397.2 92.2 386.37 92.2 392.03 126.57 393.41 126.56 447.87 109.05"/><polygon class="cls-23" points="299.53 126.78 346.58 188.56 267.6 188.7 299.53 126.78"/><polygon class="cls-24" points="393.41 126.56 346.58 188.56 425.57 188.42 393.41 126.56"/><polygon class="cls-25" points="267.6 188.7 393.41 126.56 425.57 188.42 267.6 188.7"/><polygon class="cls-26" points="245.2 109.05 267.6 188.7 206.08 146.65 245.2 109.05"/><polygon class="cls-27" points="245.2 109.05 415.68 98.34 397.2 92.2 295.87 92.2 245.2 109.05"/><polygon class="cls-28" points="346.89 303.22 313.67 188.62 267.6 188.7 346.89 303.22"/><polygon class="cls-29" points="346.89 303.22 425.57 188.42 372.67 188.52 346.89 303.22"/><path class="cls-30" d="M529.35,337.54c-4.5,1.61-9,3.16-13.51,4.73s-9,3.09-13.53,4.62l-13.55,4.59-13.58,4.46-.11,0H475c-7.82,0-15.65.11-23.47.06l-23.47-.1c-3.91,0-7.83-.07-11.74-.12l-11.73-.15c-3.91,0-7.83-.13-11.74-.22s-7.82-.16-11.73-.28c3.91-.13,7.82-.21,11.73-.29s7.83-.18,11.74-.22l11.73-.15c3.91-.05,7.83-.11,11.74-.12l23.47-.1c7.82-.05,15.65,0,23.47.06l-.23,0L488.34,350,502,345.81c4.55-1.41,9.1-2.83,13.66-4.19S524.77,338.87,529.35,337.54Z" transform="translate(-81.47 -228.49)"/><path class="cls-31" d="M428,531.43l-5.13-7-5.09-7q-5.1-7-10.15-14.09l-10.05-14.16-10-14.2q-5-7.11-9.95-14.24l-9.9-14.27c-6.56-9.55-13.15-19.08-19.64-28.68l-.43-.62.35-.66c2.7-5.14,5.4-10.28,8.14-15.4l8.21-15.35q4.11-7.68,8.31-15.31l4.17-7.64,4.22-7.61-3.8,7.85-3.83,7.84q-3.82,7.83-7.72,15.64l-7.81,15.58c-2.6,5.2-5.24,10.38-7.88,15.55l-.08-1.28c6.67,9.46,13.24,19,19.85,28.51l9.84,14.32q4.94,7.15,9.8,14.36l9.75,14.39,9.69,14.44q4.85,7.22,9.61,14.5l4.78,7.26Z" transform="translate(-81.47 -228.49)"/><path class="cls-32" d="M552.93,385.35q-7.77,5.11-15.48,10.3L522,406c-4.94,3.28-9.84,6.64-14.76,10l-15.85-30.06-8.19-15.37L475,355.17l7.78,15.6,7.83,15.57,15.22,30-38.28-.11c-6.58,0-13.16,0-19.75,0l-19.74.06c-6.58,0-13.17,0-19.75.08l-19.74.17q-9.87.08-19.75.23c-6.58.09-13.16.18-19.74.32,6.58.14,13.16.22,19.74.31s13.17.18,19.75.23l19.74.17c6.58.07,13.17.05,19.75.08l19.74.06c6.59,0,13.17.06,19.75,0l38-.11-19,27.31L466.9,473.78q-4.93,7.16-9.79,14.36l-9.75,14.4q-4.89,7.17-9.71,14.42c-3.22,4.82-6.45,9.63-9.64,14.47,3.39-4.69,6.74-9.41,10.1-14.12s6.72-9.43,10-14.17l10-14.2q5-7.1,10-14.24l19.83-28.53,19.59-28.53c5.07-3.49,10.16-6.94,15.21-10.46L538,396.55q7.65-5.3,15.25-10.66t15.2-10.75C563.27,378.52,558.1,381.94,552.93,385.35Z" transform="translate(-81.47 -228.49)"/><path class="cls-30" d="M287.55,375.14l7.81,5,7.79,5.08,7.78,5.08c2.6,1.68,5.17,3.42,7.75,5.12l15.49,10.29,7.74,5.14,7.73,5.18-.61-.19,19.74-.12,19.75,0,19.74,0,19.75.09c6.58,0,13.16.06,19.74.16l19.75.26,9.87.12,9.88.21,9.87.21,9.87.26-9.87.26-9.87.2-9.88.21-9.87.12-19.75.26c-6.58.1-13.16.12-19.74.17l-19.75.08-19.74,0-19.75,0L349,418.23h-.34l-.27-.19-7.65-5.29-7.63-5.34L317.9,396.74c-2.54-1.79-5.1-3.55-7.62-5.36L302.7,386l-7.59-5.4Z" transform="translate(-81.47 -228.49)"/><path class="cls-32" d="M463.22,354.57c-3.92-.15-7.83-.32-11.74-.43s-7.82-.24-11.74-.31-7.82-.19-11.73-.23l-11.74-.15-11.73-.05c-3.91,0-7.83,0-11.74,0l-11.28.06-6.77-2.15c-2.27-.74-4.55-1.41-6.83-2.12l-6.83-2.09-6.85-2c-2.28-.68-4.57-1.35-6.86-2s-4.58-1.31-6.88-1.93c-4.6-1.26-9.2-2.5-13.83-3.63,4.44,1.81,8.9,3.51,13.37,5.18,2.23.86,4.48,1.65,6.72,2.48s4.49,1.63,6.74,2.42l6.74,2.38,6.77,2.32c2.26.76,4.51,1.55,6.77,2.29l4.83,1.59c-1,1.95-2,3.89-3,5.86l-4,7.75c-1.33,2.58-2.61,5.19-3.91,7.79s-2.61,5.19-3.88,7.81L360,393.26l-3.75,7.88-3.67,7.92c-1.21,2.66-2.41,5.31-3.56,8,1.51-2.48,3-5,4.45-7.49l4.33-7.54,4.26-7.59,4.2-7.63c1.4-2.54,2.75-5.11,4.13-7.66s2.76-5.11,4.1-7.69l4-7.71c1.21-2.28,2.38-4.58,3.56-6.88l10.7.05c3.91,0,7.83.05,11.74,0l11.73-.05,11.74-.15c3.91,0,7.82-.14,11.73-.22s7.83-.19,11.74-.32,7.82-.27,11.74-.42,7.82-.37,11.73-.6C471,354.93,467.13,354.74,463.22,354.57Z" transform="translate(-81.47 -228.49)"/><ellipse class="cls-33" cx="298.91" cy="127.55" rx="13.53" ry="14.23"/><path class="cls-34" d="M380.63,360.14a3.13,3.13,0,0,1,3.21-2.54l14.86.93-14.52-3.45a3.26,3.26,0,0,1-2.41-3.38l.87-15.63-3.28,15.27a3.13,3.13,0,0,1-3.21,2.54L361.29,353l14.52,3.46a3.24,3.24,0,0,1,2.41,3.38l-.88,15.62Z" transform="translate(-81.47 -228.49)"/><path class="cls-35" d="M357.77,417.26a7.13,7.13,0,0,0-5-8.55,6.75,6.75,0,0,0-8.13,5.28,7.13,7.13,0,0,0,5,8.55A6.75,6.75,0,0,0,357.77,417.26Z" transform="translate(-81.47 -228.49)"/><polygon class="cls-5" points="229.85 350.89 266.42 312.45 345.85 395.96 423.41 314.41 461.42 354.37 485.12 307.04 423.41 242.16 345.85 323.71 266.42 240.2 205.59 304.15 229.85 350.89"/><polygon class="cls-36" points="232.89 355.32 345.48 574.37 458.06 359.79 425.52 324.01 345.48 408.24 266.2 324.01 232.89 355.32"/><text class="cls-37" transform="translate(602.51 477.51)"> </text><text x="-81.47" y="-228.49"/></g></g></svg>